# xmcd CD database file
# Copyright (C) 1996 Ti Kan
#
# Track frame offsets:
#	183
#	16515
#	27988
#	41270
#	55568
#	72153
#	86468
#	101583
#	112075
#	129208
#
# Disc length: 1946 seconds
#
# Revision: 1
# Processed by: cddbd v1.4b41PL1 Copyright (c) Steve Scherf et al.
# Submitted via: EasyCD 2.21 - (C) 1996 Greg Leichner
#
DISCID=6d07980a
DTITLE=Jeff Stevens and the Bullets - Jeff Stevens and the Bullets
DYEAR=1900
DGENRE=
TTITLE0=You Done Me Wrong
TTITLE1=Roseanne
TTITLE2=From Small Things
TTITLE3=Everyday
TTITLE4=Boomtown
TTITLE5=Under the LIght of the Texaco
TTITLE6=The Way of Love
TTITLE7=Chain Gang
TTITLE8=Johnny, Lucky, and Suzie 66
TTITLE9=Sometimes We All Need a Friend
EXTD=
EXTT0=
EXTT1=
EXTT2=
EXTT3=
EXTT4=
EXTT5=
EXTT6=
EXTT7=
EXTT8=
EXTT9=
PLAYORDER=
